<?xml version="1.0" encoding="UTF-8"?>
<svg version="1.1" xmlns="http://www.w3.org/2000/svg" width="1237" height="530">
<path d="M0 0 C0.72276123 0.44375977 1.44552246 0.88751953 2.19018555 1.34472656 C2.81062744 1.73781006 3.43106934 2.13089355 4.0703125 2.53588867 C11.66875003 6.12032899 19.18420764 5.86943943 27.41674805 5.75488281 C29.30847496 5.74352295 29.30847496 5.74352295 31.23841858 5.73193359 C36.59516492 5.69958138 41.95155264 5.64405213 47.30810547 5.58886719 C113.35473135 4.9678287 180.55738154 17.35124708 230.3894043 63.62988281 C230.99397461 64.1803125 231.59854492 64.73074219 232.22143555 65.29785156 C247.3930893 79.68782761 255.80147167 97.07838087 261.60107422 116.77172852 C265.06868471 128.69985288 265.06868471 128.69985288 273.3894043 137.62988281 C274.25867554 138.30096069 274.25867554 138.30096069 275.14550781 138.9855957 C276.8638094 140.27089395 278.61475848 141.48641075 280.3894043 142.69238281 C281.61864663 143.55500617 282.84652852 144.41957164 284.07299805 145.28613281 C284.64904785 145.6921875 285.22509766 146.09824219 285.81860352 146.51660156 C292.79124805 151.45835771 297.81831605 156.54918942 300.0222168 165.07910156 C301.08079263 172.25264205 299.93469651 178.82506455 295.8737793 184.89550781 C290.93777774 190.89875295 285.22207107 195.05977253 277.3112793 195.83300781 C270.19165703 195.98666872 264.96878847 194.72563245 259.3894043 190.19238281 C257.3894043 187.62988281 257.3894043 187.62988281 257.3894043 183.62988281 C256.65689453 183.50009033 255.92438477 183.37029785 255.16967773 183.23657227 C252.5842482 182.67240012 250.34915389 181.92115969 247.9050293 180.92285156 C247.06077393 180.58527832 246.21651855 180.24770508 245.34667969 179.89990234 C244.45327881 179.5426709 243.55987793 179.18543945 242.6394043 178.81738281 C223.95874549 171.53928811 205.18964167 168.93531697 185.2644043 167.31738281 C171.26295194 166.13758817 157.38402956 164.37747728 143.48266602 162.34350586 C136.68734345 161.35071473 129.91247957 160.38529069 123.06225586 159.84814453 C121.13950485 159.69113509 119.21955553 159.49831646 117.30249023 159.28271484 C104.30820105 157.45491335 104.30820105 157.45491335 92.25415039 161.07714844 C88.60343823 164.98472054 86.24857175 169.65245073 83.74975586 174.34228516 C81.52035063 178.09130293 78.62878912 181.04165319 75.5144043 184.06738281 C74.92675293 184.63884033 74.33910156 185.21029785 73.73364258 185.79907227 C55.9841694 202.55868033 31.55179652 217.11827891 6.6394043 216.87988281 C5.81569336 216.88761719 4.99198242 216.89535156 4.14331055 216.90332031 C-0.2209116 216.88926485 -3.63923206 216.6639959 -7.6105957 214.62988281 C-6.85437079 205.17707146 -1.82316494 200.65072453 4.7019043 194.44238281 C13.46699311 185.87293861 19.32796975 177.25920782 23.3894043 165.62988281 C6.06887933 168.36041263 -10.11056176 173.90436878 -26.6105957 179.62988281 C-30.52354919 180.97438805 -34.44092665 182.3051116 -38.3605957 183.62988281 C-39.16231201 183.90807861 -39.96402832 184.18627441 -40.79003906 184.47290039 C-44.73187755 185.81022786 -48.44216795 186.77688521 -52.5637207 187.37988281 C-57.66037992 188.33073369 -60.9406488 190.64315249 -65.03393555 193.73046875 C-69.4242571 196.96684374 -74.1911411 199.55519459 -78.9230957 202.25488281 C-87.02276793 206.93327771 -95.08015859 211.66747247 -103.0480957 216.56738281 C-103.88058838 217.07414551 -104.71308105 217.5809082 -105.57080078 218.10302734 C-113.98786462 223.31095241 -121.51154086 229.31263349 -128.6730957 236.12988281 C-129.89226546 237.27795592 -131.11230941 238.42510144 -132.33325195 239.57128906 C-132.90446777 240.1077002 -133.47568359 240.64411133 -134.06420898 241.19677734 C-135.87133314 242.87151981 -137.72894295 244.47708274 -139.6105957 246.06738281 C-150.83409519 255.85504015 -160.33243676 266.58098726 -169.10083008 278.59521484 C-170.48736632 280.46381009 -171.916195 282.28334935 -173.3762207 284.09472656 C-191.55238276 307.0142219 -205.78132681 338.4685274 -209.6105957 367.62988281 C-208.46977539 367.95279297 -208.46977539 367.95279297 -207.3059082 368.28222656 C-193.44089995 373.3387042 -179.89380536 381.14433707 -168.6105957 390.62988281 C-167.76883789 391.26667969 -166.92708008 391.90347656 -166.05981445 392.55957031 C-157.30942058 399.95623499 -151.94440412 410.45437368 -150.8605957 421.75488281 C-150.76161873 423.37900504 -150.67241929 425.00392239 -150.6105957 426.62988281 C-151.20485352 426.448125 -151.79911133 426.26636719 -152.41137695 426.07910156 C-154.17595917 425.54396388 -155.94314369 425.0173687 -157.7121582 424.49707031 C-159.54906436 423.94748383 -161.37866715 423.37231203 -163.1965332 422.76269531 C-175.18633397 418.9821275 -185.87395072 420.17071208 -197.7355957 423.73925781 C-204.33320289 425.25564334 -210.88479125 424.9480549 -217.6105957 424.62988281 C-217.85938477 425.36722656 -218.10817383 426.10457031 -218.36450195 426.86425781 C-222.6044428 436.27453405 -233.90945781 443.12578099 -241.8059082 449.36425781 C-254.30786013 459.65998293 -261.86524843 475.3353189 -267.50512695 490.23925781 C-268.59805831 492.60277014 -269.65217886 493.94642994 -271.6105957 495.62988281 C-281.58208741 472.69545189 -278.9415945 441.41533516 -270.1418457 418.60473633 C-265.10246108 406.19766288 -258.32051225 395.39762598 -250.44262695 384.60253906 C-244.94710964 376.99965449 -240.81880223 371.26873466 -242.08789062 361.49121094 C-242.64028777 356.7470589 -242.80431818 352.0592547 -242.84887695 347.28613281 C-242.86349976 345.97428009 -242.86349976 345.97428009 -242.87841797 344.63592529 C-243.56148017 267.22619323 -243.56148017 267.22619323 -230.6105957 249.62988281 C-227.25512695 248.60644531 -227.25512695 248.60644531 -223.4230957 248.25488281 C-222.15079102 248.12339844 -220.87848633 247.99191406 -219.56762695 247.85644531 C-218.10389648 247.74429688 -218.10389648 247.74429688 -216.6105957 247.62988281 C-216.6105957 243.99988281 -216.6105957 240.36988281 -216.6105957 236.62988281 C-221.97577542 235.8727847 -227.18793328 235.4911008 -232.6105957 235.53222656 C-233.33174561 235.53364151 -234.05289551 235.53505646 -234.79589844 235.53651428 C-237.06750894 235.542049 -239.3390157 235.55458858 -241.6105957 235.56738281 C-243.16397968 235.57240627 -244.71736523 235.57696769 -246.27075195 235.58105469 C-250.05073899 235.59199692 -253.83064984 235.60921521 -257.6105957 235.62988281 C-257.63947082 231.98406594 -257.65735155 228.33827818 -257.6730957 224.69238281 C-257.68147461 223.65146484 -257.68985352 222.61054688 -257.69848633 221.53808594 C-257.70332031 220.05405273 -257.70332031 220.05405273 -257.70825195 218.54003906 C-257.71610718 217.16537476 -257.71610718 217.16537476 -257.72412109 215.76293945 C-257.6105957 213.62988281 -257.6105957 213.62988281 -256.6105957 212.62988281 C-248.04642098 211.43083989 -239.37918095 211.49532447 -230.7512207 211.53222656 C-229.48082947 211.53364151 -228.21043823 211.53505646 -226.90155029 211.53651428 C-223.5676777 211.54112277 -220.23387724 211.55006456 -216.90002441 211.56121826 C-213.48063776 211.57155399 -210.06124357 211.57603762 -206.6418457 211.58105469 C-199.96474037 211.59201488 -193.28767785 211.60924317 -186.6105957 211.62988281 C-186.9405957 207.00988281 -187.2705957 202.38988281 -187.6105957 197.62988281 C-197.5105957 197.13488281 -197.5105957 197.13488281 -207.6105957 196.62988281 C-204.28671966 187.73362635 -200.66833154 179.21718423 -196.6105957 170.62988281 C-205.1905957 170.62988281 -213.7705957 170.62988281 -222.6105957 170.62988281 C-222.6312207 167.96925781 -222.6518457 165.30863281 -222.6730957 162.56738281 C-222.68219971 161.74359131 -222.69130371 160.9197998 -222.70068359 160.07104492 C-222.70318115 159.39823486 -222.70567871 158.7254248 -222.70825195 158.03222656 C-222.71348877 157.35667725 -222.71872559 156.68112793 -222.72412109 155.98510742 C-222.57292362 152.84832882 -222.05471822 149.73874046 -221.6105957 146.62988281 C-213.6905957 146.62988281 -205.7705957 146.62988281 -197.6105957 146.62988281 C-197.2805957 144.97988281 -196.9505957 143.32988281 -196.6105957 141.62988281 C-189.3158144 127.52205104 -177.80964297 115.53019706 -166.98364258 104.10009766 C-165.30380306 102.30137903 -163.70110023 100.44528048 -162.1105957 98.56738281 C-148.80580288 83.31554714 -133.18475697 71.84898825 -116.81933594 60.11157227 C-111.65301333 56.40431315 -106.56715153 52.61541747 -101.6105957 48.62988281 C-104.02068422 41.71151107 -106.89387781 36.22886448 -111.6105957 30.62988281 C-112.43237305 29.62634766 -112.43237305 29.62634766 -113.27075195 28.60253906 C-116.74579243 24.47840219 -120.45971912 20.91353518 -124.5559082 17.41503906 C-136.72309926 6.8439244 -136.72309926 6.8439244 -137.9543457 -0.38964844 C-138.40788459 -6.86391599 -136.41703771 -12.16502905 -132.6105957 -17.37011719 C-100.57672006 -46.35894761 -30.6228724 -19.09008979 0 0 Z " fill="#4465A3" transform="translate(381.610595703125,27.3701171875)"/>
<path d="M0 0 C16.53625277 17.4196586 19.63436198 39.98554511 20.14453125 63.0703125 C20.18235066 64.54152157 20.22026644 66.01272817 20.25827026 67.4839325 C20.65796256 83.95440577 20.67990926 100.42864924 20.65771484 116.90307617 C20.65188497 121.25111831 20.655403 125.59910049 20.66128731 129.94714069 C20.66489213 133.34688272 20.66375696 136.74661032 20.66115952 140.14635277 C20.6604968 141.75267736 20.66129552 143.35900329 20.66363907 144.96532631 C20.66617859 147.1830564 20.6623127 149.40068565 20.65673828 151.6184082 C20.65594269 152.87265091 20.65514709 154.12689362 20.65432739 155.41914368 C20.54266944 158.31708481 20.20027156 160.90162645 19.52734375 163.71484375 C12.56730928 163.74011213 5.60728655 163.75767597 -1.3527832 163.76977539 C-3.72257937 163.77481716 -6.0923724 163.7816504 -8.4621582 163.7902832 C-11.86019664 163.80235565 -15.2581941 163.80807346 -18.65625 163.8125 C-19.7229039 163.81766129 -20.7895578 163.82282257 -21.88853455 163.82814026 C-22.86947586 163.82821579 -23.85041718 163.82829132 -24.86108398 163.82836914 C-26.16347267 163.83170006 -26.16347267 163.83170006 -27.49217224 163.83509827 C-29.47265625 163.71484375 -29.47265625 163.71484375 -30.47265625 162.71484375 C-30.70944341 160.02248599 -30.8946365 157.34986219 -31.03515625 154.65234375 C-31.07833984 153.89373047 -31.12152344 153.13511719 -31.16601562 152.35351562 C-31.27239258 150.47418937 -31.37305559 148.59454131 -31.47265625 146.71484375 C-32.15328125 147.34390625 -32.83390625 147.97296875 -33.53515625 148.62109375 C-49.91886685 163.08756162 -67.43804347 169.04251069 -89.47265625 167.71484375 C-108.55133912 166.05315202 -124.91199221 159.60820254 -137.47265625 144.71484375 C-147.09287852 131.94316936 -149.02232814 117.25811928 -147.47265625 101.71484375 C-145.92817956 93.64538691 -142.43957975 87.18310433 -137.47265625 80.71484375 C-137.03308594 80.09996094 -136.59351563 79.48507812 -136.140625 78.8515625 C-126.5430043 66.37742148 -109.09205073 60.49293646 -94.09838867 58.19848633 C-88.23170253 57.48415916 -82.34430609 57.48178384 -76.44140625 57.3984375 C-75.20974731 57.3776564 -73.97808838 57.35687531 -72.70910645 57.33546448 C-68.79700999 57.27038187 -64.88484969 57.21127682 -60.97265625 57.15234375 C-58.3111828 57.10960476 -55.64973408 57.06550373 -52.98828125 57.02148438 C-46.48313927 56.91474306 -39.9779346 56.81290196 -33.47265625 56.71484375 C-33.908487 54.82491796 -34.35452077 52.93734369 -34.8046875 51.05078125 C-35.0519458 49.99938965 -35.2992041 48.94799805 -35.55395508 47.86474609 C-37.73735256 40.3786461 -41.77352561 34.24063265 -48.29296875 29.8984375 C-60.96741061 23.01607929 -76.07891598 24.87572359 -89.47265625 28.71484375 C-95.38156795 30.5772592 -101.25265677 32.54852941 -107.10620117 34.57788086 C-108.22873291 34.96596924 -109.35126465 35.35405762 -110.5078125 35.75390625 C-111.51207275 36.10662598 -112.51633301 36.4593457 -113.55102539 36.82275391 C-116.51633184 37.72817964 -119.40672907 38.27437136 -122.47265625 38.71484375 C-124.43203014 34.67740385 -126.38915228 30.63888258 -128.34423828 26.59936523 C-129.00899187 25.22667334 -129.67434883 23.85427348 -130.34033203 22.48217773 C-131.3001104 20.50451782 -132.25767994 18.5258014 -133.21484375 16.546875 C-133.65870926 15.63407524 -133.65870926 15.63407524 -134.11154175 14.70283508 C-138.46344702 5.68917989 -138.46344702 5.68917989 -138.4921875 2.6484375 C-136.88015054 -0.40887398 -134.10612489 -1.64476293 -131.16015625 -3.22265625 C-130.20955322 -3.74424316 -130.20955322 -3.74424316 -129.23974609 -4.27636719 C-93.90927145 -23.32563937 -31.78197326 -29.37196581 0 0 Z M-90.16015625 96.33984375 C-93.69194047 100.89217601 -95.59589649 106.3766407 -95.3828125 112.1484375 C-94.41926245 117.59020112 -92.49975729 120.95621611 -88.47265625 124.71484375 C-79.25267521 129.98340434 -67.74753514 130.65296238 -57.47265625 128.71484375 C-49.86576738 126.50367858 -43.28663622 122.02866075 -38.93359375 115.35546875 C-34.29423197 106.61936061 -33.1046083 98.50900854 -33.47265625 88.71484375 C-39.2723653 87.35511309 -45.02431533 87.5288215 -50.953125 87.52954102 C-52.93884413 87.52738054 -54.92452412 87.50894817 -56.91015625 87.49023438 C-75.13516073 87.34326422 -75.13516073 87.34326422 -90.16015625 96.33984375 Z " fill="#FCFCFB" transform="translate(1216.47265625,318.28515625)"/>
<path d="M0 0 C14.62350437 13.6900892 19.21648838 30.97633717 20.5703125 50.40625 C20.6945092 54.25063852 20.69755963 58.09015555 20.68383789 61.9362793 C20.68398392 63.03028549 20.68412994 64.12429169 20.6842804 65.25144958 C20.68358987 68.82781026 20.67583815 72.4041173 20.66796875 75.98046875 C20.66610151 78.47581453 20.66467905 80.97116068 20.66368103 83.46650696 C20.65987995 90.00451689 20.65007044 96.54250429 20.63897705 103.08050537 C20.62625879 110.9409598 20.62234921 118.80142631 20.61652374 126.66188812 C20.60685724 138.57669105 20.58768383 150.4914446 20.5703125 162.40625 C3.7403125 162.40625 -13.0896875 162.40625 -30.4296875 162.40625 C-30.4296875 156.79625 -30.4296875 151.18625 -30.4296875 145.40625 C-31.45707031 146.21449219 -32.48445313 147.02273438 -33.54296875 147.85546875 C-46.54758574 157.94463354 -59.57532971 165.38006216 -76.4296875 166.40625 C-77.66332031 166.48552734 -77.66332031 166.48552734 -78.921875 166.56640625 C-98.22152333 167.18121499 -118.0444021 162.54656737 -132.68359375 149.37890625 C-144.80720057 136.65717082 -147.44994677 121.32679624 -147.4296875 104.40625 C-146.82178276 92.84255096 -142.39055737 82.07188423 -133.73046875 74.2109375 C-107.2591451 53.44735256 -65.44440151 54.98069654 -33.4296875 55.40625 C-35.72727313 45.14820592 -37.9009559 36.18106366 -46.1796875 29.03125 C-64.10543964 20.06837393 -82.89420579 25.21359968 -100.92919922 31.09350586 C-108.7060485 33.67184997 -108.7060485 33.67184997 -116.34765625 36.6171875 C-118.4296875 37.40625 -118.4296875 37.40625 -121.4296875 37.40625 C-123.60167181 32.80605956 -125.7555939 28.19800183 -127.89331055 23.58178711 C-128.62279438 22.01309704 -129.35713491 20.44665587 -130.09643555 18.88256836 C-131.15922991 16.63190296 -132.20420683 14.37368679 -133.24609375 12.11328125 C-133.57936172 11.41725296 -133.9126297 10.72122467 -134.2559967 10.00410461 C-135.61043663 7.02678887 -136.45607109 4.83266976 -136.25219727 1.53759766 C-134.0772416 -4.09830705 -126.15489215 -6.77873953 -121.03125 -9.19921875 C-83.22214893 -25.15121476 -32.91491243 -28.13240379 0 0 Z M-91.4296875 95.40625 C-94.67806338 99.36037422 -96.12820162 103.13030266 -95.8046875 108.3671875 C-94.39397802 116.03792029 -89.67505863 121.05062217 -83.4296875 125.40625 C-76.10816315 129.87523239 -66.51936947 129.56716973 -58.3984375 127.71484375 C-50.32130194 125.00355808 -42.09921767 120.82376829 -37.42578125 113.43359375 C-34.25619585 106.98255523 -33.26898051 100.68572241 -33.35546875 93.5390625 C-33.36618408 92.3855127 -33.37689941 91.23196289 -33.38793945 90.04345703 C-33.40860474 88.73803955 -33.40860474 88.73803955 -33.4296875 87.40625 C-38.92485665 87.33144665 -44.41972185 87.27734251 -49.9152832 87.24145508 C-51.78024466 87.22647611 -53.64517155 87.20608576 -55.51000977 87.17993164 C-74.92077726 86.4629721 -74.92077726 86.4629721 -91.4296875 95.40625 Z " fill="#FCFEFC" transform="translate(493.4296875,319.59375)"/>
<path d="M0 0 C1.44767215 2.89534431 1.12934433 5.40393844 1.13371277 8.64002991 C1.13597833 9.33055417 1.13824388 10.02107843 1.14057809 10.73252767 C1.14693432 13.05876242 1.14608761 15.38493914 1.14526367 17.71118164 C1.14825475 19.37532629 1.15165715 21.03947025 1.15544128 22.70361328 C1.16430537 27.24015643 1.16662082 31.77668073 1.16725707 36.31323171 C1.1679679 39.15674933 1.17010317 42.00026217 1.17275429 44.84377861 C1.18202591 54.79290952 1.18608819 64.74202702 1.18530273 74.69116211 C1.18470615 83.91111149 1.19517003 93.13100157 1.2110464 102.350936 C1.22423119 110.29610243 1.22948188 118.2412498 1.22884732 126.18642706 C1.22859489 130.91730065 1.23130083 135.64812191 1.24202538 140.37898445 C1.43169002 230.49526027 1.43169002 230.49526027 -29 262 C-46.69738344 279.25860534 -72.03553293 284.38538278 -95.92504883 284.31567383 C-98.16733175 284.31252829 -100.40827089 284.33601427 -102.65039062 284.36132812 C-127.41910397 284.47000076 -155.1317663 278.45064861 -173.375 260.6875 C-173.91125 260.130625 -174.4475 259.57375 -175 259 C-171.11109401 247.16139667 -158.21444257 238.59105739 -148.68164062 231.32470703 C-147.19120852 230.1506239 -145.76902658 228.89103134 -144.359375 227.62109375 C-139.26344884 223.06861426 -139.26344884 223.06861426 -135.9140625 222.88671875 C-133.48227097 223.36517593 -131.31806243 224.12123374 -129 225 C-126.8996196 225.67850126 -124.79512545 226.34435013 -122.6875 227 C-121.58277344 227.34546875 -120.47804687 227.6909375 -119.33984375 228.046875 C-106.50578229 231.70946096 -94.11479359 232.72968457 -81.76953125 226.95703125 C-73.13851627 221.53134485 -69.41188719 210.61502945 -67.125 201.125 C-65.19542842 191.77024157 -64.8542198 182.77087508 -64.8581543 173.24365234 C-64.85511773 171.86306142 -64.85159491 170.48247149 -64.84762573 169.10188293 C-64.83977739 166.14289618 -64.8346074 163.18392126 -64.83133507 160.22492599 C-64.82539421 155.54311231 -64.80882734 150.86137339 -64.78999329 146.17959595 C-64.78365728 144.57316403 -64.77733164 142.96673207 -64.77101612 141.36030006 C-64.76785031 140.55624646 -64.7646845 139.75219286 -64.76142275 138.923774 C-64.71941883 128.03415642 -64.68634608 117.14457615 -64.67407227 106.25488281 C-64.66569104 98.89409954 -64.64320612 91.5335042 -64.6047166 84.17281497 C-64.58497332 80.2826286 -64.57254593 76.39272304 -64.57755089 72.50248337 C-64.58219834 68.84640941 -64.56838757 65.19086898 -64.54053879 61.53490257 C-64.53034379 59.55852469 -64.53987493 57.58207571 -64.55003357 55.60569763 C-64.46810182 47.83101631 -63.84625025 44.03491804 -58.46704102 38.3918457 C-57.98420654 37.99054443 -57.50137207 37.58924316 -57.00390625 37.17578125 C-56.45226807 36.71026855 -55.90062988 36.24475586 -55.33227539 35.76513672 C-54.74824951 35.2857666 -54.16422363 34.80639648 -53.5625 34.3125 C-52.30197882 33.25923965 -51.04156448 32.20585142 -49.78125 31.15234375 C-49.14703125 30.62624512 -48.5128125 30.10014648 -47.859375 29.55810547 C-46.12442145 28.10426178 -44.41730523 26.62498127 -42.71875 25.12890625 C-14.04800776 0 -14.04800776 0 0 0 Z " fill="#1D4C90" transform="translate(317,246)"/>
<path d="M0 0 C18.36841002 -0.12366097 36.64755039 0.12291371 55 1 C61.64109591 17.18364149 67.77581065 33.49071495 73.56130981 49.99819946 C79.60495122 67.21489007 85.69532339 84.40434868 92.5625 101.3125 C92.82608307 101.96807892 93.08966614 102.62365784 93.36123657 103.29910278 C96.18682796 110.79195459 96.18682796 110.79195459 101 117 C101.23342606 116.38440216 101.46685211 115.76880432 101.70735168 115.134552 C104.74213418 107.13126676 107.77723195 99.1281011 110.8125 91.125 C111.05797703 90.47774208 111.30345406 89.83048416 111.55636978 89.16361237 C119.72694847 67.62015399 127.90593345 46.07990727 136.0949707 24.54345703 C136.47243439 23.55057678 136.84989807 22.55769653 137.23880005 21.534729 C137.9340956 19.70585168 138.62953699 17.87702978 139.32516479 16.04827881 C139.79008835 14.82531097 139.79008835 14.82531097 140.2644043 13.57763672 C140.66117622 12.53432693 140.66117622 12.53432693 141.06596375 11.46994019 C142.38468796 7.98274158 143.69093629 4.49083655 145 1 C162.82 1 180.64 1 199 1 C197.10337173 7.95430367 195.28760095 14.26806163 192.515625 20.8125 C192.1832785 21.6119101 191.85093201 22.41132019 191.5085144 23.23495483 C190.42900986 25.82614675 189.33973428 28.41309565 188.25 31 C187.48768944 32.82355117 186.72581432 34.64728443 185.96435547 36.47119141 C180.77899244 48.86841406 175.49491783 61.22278993 170.18200684 73.56576538 C164.27010129 87.30391696 158.54208399 101.10792376 153 115 C152.71427124 115.71603394 152.42854248 116.43206787 152.13415527 117.1697998 C149.87329086 122.83927797 147.62197637 128.51250488 145.375 134.1875 C145.05219055 135.00173431 144.7293811 135.81596863 144.39678955 136.65487671 C141.24547249 144.61141114 138.12308158 152.57062273 135.21875 160.62109375 C134.61281006 162.29425659 134.61281006 162.29425659 133.99462891 164.0012207 C133.27408473 166.01154838 132.56691076 168.02674481 131.87646484 170.04760742 C130.10514064 175.00119457 128.76323843 178.25483144 124 181 C121.24290491 181.84486588 118.76968184 182.1261177 115.89331055 182.12939453 C115.09535568 182.13254669 114.29740082 182.13569885 113.4752655 182.13894653 C112.62104507 182.1369223 111.76682465 182.13489807 110.88671875 182.1328125 C109.55505424 182.13424759 109.55505424 182.13424759 108.19648743 182.13571167 C106.31954884 182.13639149 104.44260788 182.13455099 102.56567383 182.13037109 C99.70844157 182.12503908 96.85136788 182.13031296 93.99414062 182.13671875 C92.16666632 182.13605756 90.33919212 182.13477556 88.51171875 182.1328125 C87.66357101 182.13483673 86.81542328 182.13686096 85.9415741 182.13894653 C75.95346636 182.09995263 75.95346636 182.09995263 72 181 C70.02685547 178.41333008 70.02685547 178.41333008 68.4921875 174.95703125 C68.06412308 174.01909477 68.06412308 174.01909477 67.62741089 173.06221008 C66.72147956 171.05328632 65.85811174 169.02975731 65 167 C64.43961575 165.71121342 63.87874797 164.42263697 63.31738281 163.13427734 C61.53839623 159.00495672 59.83057331 154.8475508 58.125 150.6875 C57.47973039 149.12423115 56.83396502 147.56116686 56.18774414 145.99829102 C54.82389202 142.69836336 53.46269628 139.39735639 52.10302734 136.09570312 C49.9944304 130.9802462 47.86788688 125.87236457 45.73828125 120.765625 C33.75112477 92.00514445 22.09248412 63.13214514 10.875 34.0625 C10.55658142 33.23925232 10.23816284 32.41600464 9.91009521 31.56781006 C0 5.91712761 0 5.91712761 0 0 Z " fill="#FCFCFB" transform="translate(630,301)"/>
<path d="M0 0 C17.49 0 34.98 0 53 0 C53.62279268 31.55155988 53.62279268 31.55155988 53.77294922 42.29785156 C53.78873319 43.4273689 53.78873319 43.4273689 53.80483603 44.57970476 C54.266486 78.59448478 54.11005446 112.61740008 54.07202661 146.63443112 C54.06057736 157.06843068 54.05528369 167.50243113 54.05032361 177.93643546 C54.04004357 199.29096563 54.02180745 220.64547828 54 242 C36.51 242 19.02 242 1 242 C0.37558741 234.50704898 -0.14556783 227.29855516 -0.12025452 219.82525635 C-0.12110894 218.87578621 -0.12196337 217.92631607 -0.12284368 216.9480741 C-0.12447416 213.8068341 -0.11901745 210.66564903 -0.11352539 207.52441406 C-0.11324297 205.25666302 -0.11340233 202.98891188 -0.1139679 200.72116089 C-0.11425371 194.59395965 -0.10839185 188.46677816 -0.10139394 182.33958149 C-0.09512448 175.92542433 -0.09455376 169.51126668 -0.09336853 163.09710693 C-0.09061786 152.34077551 -0.08438013 141.58445268 -0.07543945 130.828125 C-0.06624472 119.75455765 -0.05917399 108.68099227 -0.05493164 97.60742188 C-0.05466892 96.92356557 -0.05440619 96.23970927 -0.05413551 95.53513005 C-0.05283037 92.10404129 -0.05156668 88.67295251 -0.05032361 85.24186373 C-0.03997574 56.82790312 -0.02155084 28.41395445 0 0 Z " fill="#FCFEFC" transform="translate(553,240)"/>
<path d="M0 0 C0.72276123 0.44375977 1.44552246 0.88751953 2.19018555 1.34472656 C2.81062744 1.73781006 3.43106934 2.13089355 4.0703125 2.53588867 C11.66875003 6.12032899 19.18420764 5.86943943 27.41674805 5.75488281 C29.30847496 5.74352295 29.30847496 5.74352295 31.23841858 5.73193359 C36.59516492 5.69958138 41.95155264 5.64405213 47.30810547 5.58886719 C113.35473135 4.9678287 180.55738154 17.35124708 230.3894043 63.62988281 C230.99397461 64.1803125 231.59854492 64.73074219 232.22143555 65.29785156 C247.3930893 79.68782761 255.80147167 97.07838087 261.60107422 116.77172852 C265.06868471 128.69985288 265.06868471 128.69985288 273.3894043 137.62988281 C274.25867554 138.30096069 274.25867554 138.30096069 275.14550781 138.9855957 C276.8638094 140.27089395 278.61475848 141.48641075 280.3894043 142.69238281 C281.61864663 143.55500617 282.84652852 144.41957164 284.07299805 145.28613281 C284.64904785 145.6921875 285.22509766 146.09824219 285.81860352 146.51660156 C292.79124805 151.45835771 297.81831605 156.54918942 300.0222168 165.07910156 C301.08079263 172.25264205 299.93469651 178.82506455 295.8737793 184.89550781 C290.93777774 190.89875295 285.22207107 195.05977253 277.3112793 195.83300781 C270.19165703 195.98666872 264.96878847 194.72563245 259.3894043 190.19238281 C257.3894043 187.62988281 257.3894043 187.62988281 257.3894043 183.62988281 C258.29561523 183.6646875 259.20182617 183.69949219 260.13549805 183.73535156 C270.62705915 184.04487748 270.62705915 184.04487748 280.3894043 180.62988281 C283.12360974 176.52857465 283.08892968 173.44010229 282.3894043 168.62988281 C280.05233684 161.1396542 273.19259899 157.33549551 267.0456543 153.15332031 C249.11203477 140.9369839 249.11203477 140.9369839 246.3894043 130.62988281 C246.11574536 129.10955538 245.84522057 127.58866224 245.5769043 126.06738281 C240.30381549 98.97181879 220.68730974 75.84131447 198.3894043 60.62988281 C187.59763659 53.59258905 176.21391507 47.72059816 164.3894043 42.62988281 C163.76839844 42.36224121 163.14739258 42.09459961 162.50756836 41.81884766 C146.0998527 34.90272832 128.42045472 30.55113108 110.9519043 27.31738281 C110.16283691 27.17026855 109.37376953 27.0231543 108.56079102 26.87158203 C92.65303383 24.1244335 76.82146241 23.30193332 60.69946289 23.36914062 C57.62846369 23.37992122 54.55804289 23.36914138 51.48706055 23.35644531 C41.65115091 23.35021292 32.08808426 23.61264381 22.3659668 25.16455078 C9.03385209 27.24878722 -0.73028247 22.62110563 -11.7355957 15.37988281 C-39.25367197 -2.11050279 -74.01070062 -14.37267393 -107.03881836 -8.97314453 C-109.91603906 -8.27821969 -112.63783925 -7.33456541 -115.38793945 -6.24511719 C-117.6105957 -5.37011719 -117.6105957 -5.37011719 -120.6105957 -5.37011719 C-120.1155957 -1.41011719 -120.1155957 -1.41011719 -119.6105957 2.62988281 C-118.88485352 2.72140625 -118.15911133 2.81292969 -117.41137695 2.90722656 C-112.22270273 4.24600582 -108.57733559 8.16811135 -104.6105957 11.62988281 C-103.91450195 12.22929688 -103.2184082 12.82871094 -102.5012207 13.44628906 C-92.44098746 22.76206505 -82.88381438 37.69597773 -81.9855957 51.62988281 C-81.92250373 54.86019178 -82.61094084 55.63027255 -84.81762695 58.12207031 C-91.86487074 64.44980529 -99.73028479 69.74824043 -107.5480957 75.06738281 C-114.78541726 79.9956911 -121.77193931 85.1627152 -128.6105957 90.62988281 C-129.4046582 91.25636719 -130.1987207 91.88285156 -131.0168457 92.52832031 C-134.41921302 95.33400381 -136.88281907 97.83571163 -139.0480957 101.69238281 C-141.40164102 105.80124787 -144.28097293 107.5817397 -148.23950195 110.05175781 C-157.63279672 116.30363769 -163.87537001 126.0968493 -170.3762207 135.10644531 C-171.21407104 136.25052856 -171.21407104 136.25052856 -172.06884766 137.41772461 C-173.62379143 139.57077883 -173.62379143 139.57077883 -174.79882812 141.75805664 C-175.91918945 143.68847656 -175.91918945 143.68847656 -178.6105957 146.62988281 C-181.92790152 147.45790147 -185.03134904 147.29754608 -188.4230957 147.06738281 C-189.30674805 147.03580078 -190.19040039 147.00421875 -191.10083008 146.97167969 C-193.2721871 146.88952023 -195.44182583 146.7639677 -197.6105957 146.62988281 C-195.30924518 130.88527737 -177.52317727 115.22774635 -166.98364258 104.10009766 C-165.30380306 102.30137903 -163.70110023 100.44528048 -162.1105957 98.56738281 C-148.80580288 83.31554714 -133.18475697 71.84898825 -116.81933594 60.11157227 C-111.65301333 56.40431315 -106.56715153 52.61541747 -101.6105957 48.62988281 C-104.02068422 41.71151107 -106.89387781 36.22886448 -111.6105957 30.62988281 C-112.43237305 29.62634766 -112.43237305 29.62634766 -113.27075195 28.60253906 C-116.74579243 24.47840219 -120.45971912 20.91353518 -124.5559082 17.41503906 C-136.72309926 6.8439244 -136.72309926 6.8439244 -137.9543457 -0.38964844 C-138.40788459 -6.86391599 -136.41703771 -12.16502905 -132.6105957 -17.37011719 C-100.57672006 -46.35894761 -30.6228724 -19.09008979 0 0 Z " fill="#F21422" transform="translate(381.610595703125,27.3701171875)"/>
<path d="M0 0 C0 15.18 0 30.36 0 46 C-6.93 46.99 -13.86 47.98 -21 49 C-32.44008936 51.24525118 -42.77348541 55.38929006 -50 65 C-58.18095332 79.08818119 -59.18422175 94.61587936 -59.125 110.5 C-59.12306641 111.7694043 -59.12113281 113.03880859 -59.11914062 114.34667969 C-59.07719988 123.6971361 -58.77970258 133.0202608 -58.36035156 142.36035156 C-57.78229921 155.38551673 -57.99659631 167.95575208 -59 181 C-76.82 181 -94.64 181 -113 181 C-113 121.6 -113 62.2 -113 1 C-96.17 1 -79.34 1 -62 1 C-60.875 7.75 -60.875 7.75 -60.90234375 11.3046875 C-60.90556641 12.05234375 -60.90878906 12.8 -60.91210938 13.5703125 C-60.92467773 14.71113281 -60.92467773 14.71113281 -60.9375 15.875 C-60.94201172 16.65875 -60.94652344 17.4425 -60.95117188 18.25 C-60.96285907 20.16670014 -60.98079092 22.08336048 -61 24 C-59.33183358 22.64768127 -57.66555858 21.29302933 -56 19.9375 C-54.98550781 19.11378906 -53.97101562 18.29007812 -52.92578125 17.44140625 C-50.58398243 15.48730176 -48.38865232 13.48024154 -46.1875 11.375 C-33.75931406 0.3818211 -16.07661562 -4.0191539 0 0 Z " fill="#FCFEFC" transform="translate(1060,301)"/>
<path d="M0 0 C17.82 0 35.64 0 54 0 C54 59.4 54 118.8 54 180 C36.51 180 19.02 180 1 180 C0.82605125 167.06256197 0.65684727 154.12514621 0.5 141.1875 C0.48812275 140.20832233 0.4762455 139.22914467 0.46400833 138.22029495 C0.07012069 105.45878638 -0.09041676 72.70130243 -0.0625 39.9375 C-0.06164398 38.92552425 -0.06078796 37.91354851 -0.05990601 36.87090683 C-0.04871899 24.58057579 -0.02575387 12.29031837 0 0 Z " fill="#FCFEFC" transform="translate(850,302)"/>
<path d="M0 0 C5.23715897 4.11403863 9.54575669 8.92633258 11.67578125 15.31640625 C12.58954202 25.99692144 11.23587432 34.3416157 4.30078125 42.69140625 C-2.92913905 50.27214547 -11.29497361 53.31343456 -21.69921875 53.75390625 C-31.55061194 53.42975454 -41.25853988 50.3499684 -48.32421875 43.31640625 C-54.36148935 36.45827868 -55.70126133 31.58629559 -55.6015625 22.48046875 C-54.90052656 14.48273478 -50.99631004 6.96425784 -45.32421875 1.31640625 C-31.86869883 -8.84296282 -14.12601594 -9.79754728 0 0 Z " fill="#FBFBFA" transform="translate(899.32421875,226.68359375)"/>
<path d="M0 0 C1 4 1 4 1 15 C9.91 14.67 18.82 14.34 28 14 C28.66739717 21.34136883 29.13314628 28.3621685 29.0625 35.6875 C29.041875 38.760625 29.02125 41.83375 29 45 C19.43 45 9.86 45 0 45 C0 40.38 0 35.76 0 31 C-9.24 31 -18.48 31 -28 31 C-28 21.1 -28 11.2 -28 1 C-24.865 0.835 -21.73 0.67 -18.5 0.5 C-17.52869141 0.44779297 -16.55738281 0.39558594 -15.55664062 0.34179688 C-10.36269235 0.07554892 -5.20067512 -0.04860444 0 0 Z " fill="#F6262B" transform="translate(157,112)"/>
<path d="M0 0 C8.58 0 17.16 0 26 0 C25.67 7.92 25.34 15.84 25 24 C33.25 24 41.5 24 50 24 C50 33.9 50 43.8 50 54 C46.47717886 54.88070529 43.9376996 55.11668989 40.359375 55.09765625 C39.28945312 55.09443359 38.21953125 55.09121094 37.1171875 55.08789062 C36.00601563 55.07951172 34.89484375 55.07113281 33.75 55.0625 C32.06003906 55.05573242 32.06003906 55.05573242 30.3359375 55.04882812 C27.55723783 55.03705397 24.77864591 55.0206084 22 55 C21.20160244 47.57859317 20.86931484 40.27364578 20.9375 32.8125 C20.958125 29.574375 20.97875 26.33625 21 23 C14.07 22.67 7.14 22.34 0 22 C0 14.74 0 7.48 0 0 Z " fill="#F6292F" transform="translate(97,174)"/>
<path d="M0 0 C9.57 0 19.14 0 29 0 C29 10.23 29 20.46 29 31 C19.43 31.33 9.86 31.66 0 32 C0 21.44 0 10.88 0 0 Z " fill="#F72B32" transform="translate(42,158)"/>
<path d="M0 0 C0.84836087 6.56644673 1.12509499 12.94681923 1.0625 19.5625 C1.041875 22.676875 1.02125 25.79125 1 29 C-7.58 29 -16.16 29 -25 29 C-25 19.76 -25 10.52 -25 1 C-8 -0.14285714 -8 -0.14285714 0 0 Z " fill="#F72B32" transform="translate(101,233)"/>
<path d="M0 0 C8.25 0 16.5 0 25 0 C25.33 9.24 25.66 18.48 26 28 C17.42 28 8.84 28 0 28 C0 18.76 0 9.52 0 0 Z " fill="#F72B32" transform="translate(0,194)"/>
<path d="M0 0 C1.07636719 0.00322266 2.15273438 0.00644531 3.26171875 0.00976562 C4.38964844 0.01814453 5.51757812 0.02652344 6.6796875 0.03515625 C7.81535156 0.03966797 8.95101562 0.04417969 10.12109375 0.04882812 C12.93231397 0.06063997 15.74350722 0.07857584 18.5546875 0.09765625 C18.5546875 7.68765625 18.5546875 15.27765625 18.5546875 23.09765625 C15.5434375 23.11828125 12.5321875 23.13890625 9.4296875 23.16015625 C8.49237793 23.16926025 7.55506836 23.17836426 6.58935547 23.18774414 C5.83283691 23.1902417 5.07631836 23.19273926 4.296875 23.1953125 C3.5322998 23.20054932 2.76772461 23.20578613 1.97998047 23.21118164 C-0.84977403 23.07872383 -3.6510036 22.5633744 -6.4453125 22.09765625 C-6.7753125 15.16765625 -7.1053125 8.23765625 -7.4453125 1.09765625 C-4.83580014 -0.20709993 -2.91829965 -0.01535947 0 0 Z " fill="#F6262B" transform="translate(27.4453125,133.90234375)"/>
</svg>
